<?xml version="1.0" encoding="UTF-8"?>
<svg id="Layer_2" xmlns="http://www.w3.org/2000/svg" viewBox="-4 -2 370 910">
  <defs>
    <style>
      .cls-1, .cls-2 {
        stroke: #fff;
        stroke-miterlimit: 10;
        stroke-width: 6px;
        fill: none;
      }
    </style>
  </defs>
  <circle class="cls-1" cx="80.87" cy="80.87" r="80.37"/>
  <circle class="cls-1" cx="80.87" cy="266.48" r="80.37"/>
  <circle class="cls-1" cx="80.87" cy="452.1" r="80.37"/>
  <circle class="cls-1" cx="80.87" cy="637.86" r="80.37"/>
  <circle class="cls-1" cx="80.87" cy="823.61" r="80.37"/>
  <!-- <line class="cls-2" x1="161.24" y1="80.87" x2="365.93" y2="80.87"/> -->
  <line class="cls-2" x1="365.93" y1="266.48" x2="161.24" y2="80.87"/>
  <line class="cls-2" x1="365.93" y1="452.1" x2="161.24" y2="80.87"/>
  <line class="cls-2" x1="365.93" y1="637.86" x2="161.24" y2="80.87"/>
  <line class="cls-2" x1="365.93" y1="823.61" x2="161.24" y2="80.87"/>
  <line class="cls-2" x1="365.93" y1="80.87" x2="161.24" y2="266.48"/>
  <line class="cls-2" x1="365.93" y1="266.48" x2="161.24" y2="266.48"/>
  <line class="cls-2" x1="365.93" y1="452.1" x2="161.24" y2="266.48"/>
  <line class="cls-2" x1="365.93" y1="637.86" x2="161.24" y2="266.48"/>
  <line class="cls-2" x1="365.93" y1="823.61" x2="161.24" y2="266.48"/>
  <line class="cls-2" x1="365.93" y1="80.87" x2="161.24" y2="452.1"/>
  <line class="cls-2" x1="365.93" y1="266.48" x2="161.24" y2="452.1"/>
  <line class="cls-2" x1="365.93" y1="452.1" x2="161.24" y2="452.1"/>
  <line class="cls-2" x1="365.93" y1="637.86" x2="161.24" y2="452.1"/>
  <line class="cls-2" x1="365.93" y1="823.61" x2="161.24" y2="452.1"/>
  <line class="cls-2" x1="365.93" y1="80.87" x2="161.24" y2="637.86"/>
  <line class="cls-2" x1="365.93" y1="266.48" x2="161.24" y2="637.86"/>
  <line class="cls-2" x1="365.93" y1="452.1" x2="161.24" y2="637.86"/>
  <line class="cls-2" x1="365.93" y1="637.86" x2="161.24" y2="637.86"/>
  <line class="cls-2" x1="365.93" y1="823.61" x2="161.24" y2="637.86"/>
  <line class="cls-2" x1="365.93" y1="80.87" x2="161.24" y2="823.61"/>
  <line class="cls-2" x1="365.93" y1="266.48" x2="161.24" y2="823.61"/>
  <line class="cls-2" x1="365.93" y1="452.1" x2="161.24" y2="823.61"/>
  <line class="cls-2" x1="365.93" y1="637.86" x2="161.24" y2="823.61"/>
  <!-- <line class="cls-2" x1="365.93" y1="823.61" x2="161.24" y2="823.61"/> -->
</svg>